<?xml version="1.0" encoding="UTF-8"?>
<svg id="Layer_1" data-name="Layer 1" xmlns="http://www.w3.org/2000/svg" xmlns:xlink="http://www.w3.org/1999/xlink" viewBox="0 0 1920 1080">
  <defs>
    <style>
      .cls-1 {
        opacity: .85;
      }

      .cls-2 {
        stroke-width: 4px;
      }

      .cls-2, .cls-3, .cls-4, .cls-5, .cls-6 {
        fill: none;
      }

      .cls-2, .cls-3, .cls-5, .cls-6 {
        stroke: #fff;
        stroke-miterlimit: 10;
      }

      .cls-3, .cls-6 {
        stroke-width: 3px;
      }

      .cls-4, .cls-7 {
        stroke-width: 0px;
      }

      .cls-8 {
        clip-path: url(#clippath-1);
      }

      .cls-6 {
        opacity: .9;
      }

      .cls-9 {
        clip-path: url(#clippath);
      }

      .cls-7 {
        fill: #fff;
      }
    </style>
    <clipPath id="clippath">
      <polygon class="cls-4" points="1718.63 491.29 1718.63 491.29 1758 491.29 1758 592.71 1718.63 592.71 1718.63 491.29"/>
    </clipPath>
    <clipPath id="clippath-1">
      <polygon class="cls-4" points="201.37 491.29 201.37 491.29 162 491.29 162 592.71 201.37 592.71 201.37 491.29"/>
    </clipPath>
  </defs>
  <g class="cls-1">
    <path class="cls-7" d="M1610-15c51.72,78.1,91.97,164.39,119.63,256.51,28.78,95.84,43.37,196.27,43.37,298.49s-14.59,202.65-43.37,298.49c-27.66,92.12-67.91,178.41-119.63,256.51H310c-51.72-78.1-91.97-164.39-119.63-256.51-28.78-95.84-43.37-196.27-43.37-298.49s14.59-202.65,43.37-298.49c27.66-92.12,67.91-178.41,119.63-256.51h1300M1611.61-18H308.39c-103.19,155.23-164.39,348.49-164.39,558s61.2,402.77,164.39,558h1303.22c103.19-155.23,164.39-348.49,164.39-558s-61.2-402.77-164.39-558h0Z"/>
  </g>
  <g>
    <g id="_Mirror_Repeat_" data-name="&amp;lt;Mirror Repeat&amp;gt;">
      <g class="cls-9">
        <line class="cls-6" x1="1718.63" y1="540.03" x2="1758" y2="540.03"/>
        <line class="cls-6" x1="1728.48" y1="591.21" x2="1758" y2="591.21"/>
        <line class="cls-6" x1="1729.46" y1="492.79" x2="1757.02" y2="492.79"/>
      </g>
    </g>
    <g id="_Mirror_Repeat_-2" data-name="&amp;lt;Mirror Repeat&amp;gt;">
      <g class="cls-8">
        <line class="cls-6" x1="201.37" y1="540.03" x2="162" y2="540.03"/>
        <line class="cls-6" x1="191.52" y1="591.21" x2="162" y2="591.21"/>
        <line class="cls-6" x1="190.54" y1="492.79" x2="162.98" y2="492.79"/>
      </g>
    </g>
  </g>
  <circle class="cls-3" cx="960" cy="540" r="17"/>
  <g>
    <line class="cls-2" x1="1360.82" y1="6.66" x2="1337.43" y2="37.79"/>
    <line class="cls-2" x1="1512.28" y1="165.71" x2="1480.05" y2="187.55"/>
    <line class="cls-2" x1="1603.89" y1="365.31" x2="1566.31" y2="375.51"/>
    <line class="cls-2" x1="1625.72" y1="583.85" x2="1586.87" y2="581.29"/>
    <line class="cls-2" x1="1575.41" y1="797.63" x2="1539.5" y2="782.6"/>
    <line class="cls-2" x1="1458.41" y1="983.5" x2="1429.33" y2="957.61"/>
    <line class="cls-2" x1="476.86" y1="1000.09" x2="505.05" y2="973.24"/>
    <line class="cls-2" x1="353.65" y1="818.28" x2="389.03" y2="802.04"/>
    <line class="cls-2" x1="296.14" y1="606.32" x2="334.88" y2="602.45"/>
    <line class="cls-2" x1="310.58" y1="387.18" x2="348.48" y2="396.09"/>
    <line class="cls-2" x1="395.39" y1="184.59" x2="428.34" y2="205.33"/>
    <line class="cls-2" x1="541.38" y1="20.51" x2="565.81" y2="50.83"/>
  </g>
  <circle class="cls-5" cx="960" cy="540" r="480"/>
  <g>
    <line class="cls-5" x1="524.18" y1="324.89" x2="532.85" y2="329.17"/>
    <line class="cls-5" x1="551" y1="277.45" x2="559.14" y2="282.67"/>
    <line class="cls-5" x1="582.97" y1="233.3" x2="590.48" y2="239.41"/>
    <line class="cls-5" x1="619.68" y1="193.02" x2="626.46" y2="199.92"/>
    <line class="cls-5" x1="660.67" y1="157.1" x2="666.63" y2="164.72"/>
    <line class="cls-5" x1="705.42" y1="125.99" x2="710.49" y2="134.23"/>
    <line class="cls-5" x1="753.38" y1="100.09" x2="757.49" y2="108.85"/>
    <line class="cls-5" x1="803.93" y1="79.72" x2="807.04" y2="88.88"/>
    <line class="cls-5" x1="856.45" y1="65.14" x2="858.51" y2="74.59"/>
    <line class="cls-5" x1="910.27" y1="56.53" x2="911.26" y2="66.16"/>
    <line class="cls-5" x1="964.71" y1="54.01" x2="964.62" y2="63.68"/>
    <line class="cls-5" x1="1019.1" y1="57.59" x2="1017.92" y2="67.19"/>
    <line class="cls-5" x1="1072.74" y1="67.24" x2="1070.49" y2="76.65"/>
    <line class="cls-5" x1="1124.96" y1="82.83" x2="1121.68" y2="91.93"/>
    <line class="cls-5" x1="1175.11" y1="104.18" x2="1170.83" y2="112.85"/>
    <line class="cls-5" x1="1222.55" y1="131" x2="1217.33" y2="139.14"/>
    <line class="cls-5" x1="1266.7" y1="162.97" x2="1260.59" y2="170.48"/>
    <line class="cls-5" x1="1306.98" y1="199.68" x2="1300.08" y2="206.46"/>
    <line class="cls-5" x1="1342.9" y1="240.67" x2="1335.28" y2="246.63"/>
    <line class="cls-5" x1="1374.01" y1="285.42" x2="1365.77" y2="290.49"/>
    <line class="cls-5" x1="1399.91" y1="333.38" x2="1391.15" y2="337.49"/>
    <line class="cls-5" x1="1420.28" y1="383.93" x2="1411.12" y2="387.04"/>
    <line class="cls-5" x1="1434.86" y1="436.45" x2="1425.41" y2="438.51"/>
    <line class="cls-5" x1="1443.47" y1="490.27" x2="1433.84" y2="491.26"/>
    <line class="cls-5" x1="1446" y1="544.71" x2="1436.32" y2="544.62"/>
    <line class="cls-5" x1="1442.41" y1="599.1" x2="1432.81" y2="597.92"/>
    <line class="cls-5" x1="1432.76" y1="652.74" x2="1423.35" y2="650.49"/>
    <line class="cls-5" x1="1417.17" y1="704.96" x2="1408.07" y2="701.68"/>
    <line class="cls-5" x1="1395.82" y1="755.11" x2="1387.15" y2="750.83"/>
    <line class="cls-5" x1="1369" y1="802.55" x2="1360.86" y2="797.33"/>
    <line class="cls-5" x1="1337.03" y1="846.7" x2="1329.52" y2="840.59"/>
    <line class="cls-5" x1="1300.32" y1="886.98" x2="1293.54" y2="880.08"/>
    <line class="cls-5" x1="1259.33" y1="922.9" x2="1253.37" y2="915.28"/>
    <line class="cls-5" x1="1214.58" y1="954.01" x2="1209.51" y2="945.77"/>
    <line class="cls-5" x1="1166.62" y1="979.91" x2="1162.51" y2="971.15"/>
    <line class="cls-5" x1="1116.07" y1="1000.28" x2="1112.96" y2="991.12"/>
    <line class="cls-5" x1="1063.55" y1="1014.86" x2="1061.49" y2="1005.41"/>
    <line class="cls-5" x1="1009.73" y1="1023.47" x2="1008.74" y2="1013.84"/>
    <line class="cls-5" x1="955.29" y1="1026" x2="955.38" y2="1016.32"/>
    <line class="cls-5" x1="900.9" y1="1022.41" x2="902.08" y2="1012.81"/>
    <line class="cls-5" x1="847.26" y1="1012.76" x2="849.51" y2="1003.35"/>
    <line class="cls-5" x1="795.04" y1="997.17" x2="798.32" y2="988.07"/>
    <line class="cls-5" x1="744.89" y1="975.82" x2="749.17" y2="967.15"/>
    <line class="cls-5" x1="697.45" y1="949" x2="702.67" y2="940.86"/>
    <line class="cls-5" x1="653.3" y1="917.03" x2="659.41" y2="909.52"/>
    <line class="cls-5" x1="613.02" y1="880.32" x2="619.92" y2="873.54"/>
    <line class="cls-5" x1="577.1" y1="839.33" x2="584.72" y2="833.37"/>
    <line class="cls-5" x1="545.99" y1="794.58" x2="554.23" y2="789.51"/>
    <line class="cls-5" x1="520.09" y1="746.62" x2="528.85" y2="742.51"/>
    <line class="cls-5" x1="499.72" y1="696.07" x2="508.88" y2="692.96"/>
    <line class="cls-5" x1="485.14" y1="643.55" x2="494.59" y2="641.49"/>
    <line class="cls-5" x1="476.53" y1="589.73" x2="486.16" y2="588.74"/>
    <line class="cls-5" x1="474.01" y1="535.29" x2="483.68" y2="535.38"/>
    <line class="cls-5" x1="477.59" y1="480.9" x2="487.19" y2="482.08"/>
    <line class="cls-5" x1="487.24" y1="427.26" x2="496.65" y2="429.51"/>
    <line class="cls-5" x1="502.83" y1="375.04" x2="511.93" y2="378.32"/>
  </g>
  <g>
    <line class="cls-2" x1="923.05" y1="526.32" x2="923.99" y2="526.67"/>
    <line class="cls-2" x1="943.54" y1="504.2" x2="943.97" y2="505.11"/>
    <line class="cls-2" x1="973.68" y1="503.05" x2="973.33" y2="503.99"/>
    <line class="cls-2" x1="995.81" y1="523.54" x2="994.89" y2="523.97"/>
    <line class="cls-2" x1="996.95" y1="553.68" x2="996.01" y2="553.33"/>
    <line class="cls-2" x1="976.46" y1="575.81" x2="976.03" y2="574.89"/>
    <line class="cls-2" x1="946.32" y1="576.95" x2="946.67" y2="576.01"/>
    <line class="cls-2" x1="924.2" y1="556.46" x2="925.11" y2="556.03"/>
  </g>
  <path class="cls-7" d="M929.79,194.75c458.82,0,905.05,18.21,1290.46,52.65v570.21c-385.41,34.44-831.63,52.65-1290.46,52.65s-865.22-16.63-1238.04-48.09V242.84c372.82-31.46,800.91-48.09,1238.04-48.09M929.79,194c-453.04,0-876.84,17.58-1238.79,48.15v580.69c361.96,30.57,785.76,48.15,1238.79,48.15s918.03-19.34,1291.21-52.71V246.71c-373.18-33.37-816.12-52.71-1291.21-52.71h0Z"/>
</svg>